# xmcd CD database file
#
# Track frame offsets:
#	150
#	10699
#	21119
#	36339
#	53144
#	65603
#	79941
#	92921
#	107964
#	123327
#	136943
#	154585
#	171873
#	191553
#	202989
#	210854
#	219655
#	229828
#	237589
#	243477
#	252276
#	261038
#	270737
#	279875
#	291479
#	306034
#	316238
#
# Disc length: 4346 seconds
#
# Revision: 0
# Processed by: cddbd v1.5.2PL0 Copyright (c) Steve Scherf et al.
# Submitted via: CDex 1.51
#
DISCID=8510f81b
DTITLE=Johnny Rebel - It's The Attitude, Stupid!
DYEAR=2006
DGENRE=Country
TTITLE0=It's The Attitude, Stupid!
TTITLE1=Niggers Suck!
TTITLE2=Affirmative Action
TTITLE3=Reparations
TTITLE4=Nothin' But Niggers
TTITLE5=If I Could Be A Nigger For A Day
TTITLE6=Jesse Showed Up
TTITLE7=Send 'em All Back To Africa
TTITLE8=Nigger In-Law
TTITLE9=Quit Your Bitchin' Nigger!
TTITLE10=Fuck You, Osama Bin Laden! (Infidel Anthem) XXX ver.
TTITLE11=Fuck You, Osama Bin Laden! (Infidel Anthem) XXX+CD ver.
TTITLE12=Infidel Anthem (radio+clean version)
TTITLE13=Interview
TTITLE14=Interview
TTITLE15=Interview
TTITLE16=Interview
TTITLE17=Interview
TTITLE18=Interview
TTITLE19=Interview
TTITLE20=Interview
TTITLE21=Interview
TTITLE22=Interview
TTITLE23=Interview
TTITLE24=The Garden Song - Filthy McNasty
TTITLE25=Black Magic - Jericho Jones
TTITLE26=Can A Young Love (Turn To Old Love Overnight) - Jericho Jones
EXTD=YEAR: 2006
EXTT0=
EXTT1=
EXTT2=
EXTT3=
EXTT4=
EXTT5=
EXTT6=
EXTT7=
EXTT8=
EXTT9=
EXTT10=
EXTT11=
EXTT12=
EXTT13=
EXTT14=
EXTT15=
EXTT16=
EXTT17=
EXTT18=
EXTT19=
EXTT20=
EXTT21=
EXTT22=
EXTT23=
EXTT24=
EXTT25=
EXTT26=
PLAYORDER=
